<?xml version="1.0" encoding="UTF-8"?>
<svg xmlns="http://www.w3.org/2000/svg" xmlns:xlink="http://www.w3.org/1999/xlink" width="2250" height="2250" viewBox="0 0 2250 2250">
<rect x="-225" y="-225" width="2700" height="2700" fill="rgb(94.921875%, 94.921875%, 94.921875%)" fill-opacity="1"/>
<path fill-rule="nonzero" fill="rgb(47.068787%, 26.660156%, 12.939453%)" fill-opacity="1" d="M 499.652344 1700.765625 C 499.652344 1700.765625 788.320312 1648.089844 1119.128906 1637.554688 C 1397.191406 1628.699219 1492.078125 1671.265625 1492.078125 1671.265625 C 1486.25 1687.035156 1486.480469 1704.089844 1497.171875 1722.835938 C 1143.46875 1690.875 748.636719 1751.476562 450.335938 1801.800781 Z M 499.652344 1700.765625 "/>
<path fill-rule="nonzero" fill="rgb(47.068787%, 26.660156%, 12.939453%)" fill-opacity="1" d="M 1617.550781 575.410156 C 1608.980469 574.808594 1600.128906 576.679688 1592.089844 581.320312 L 1408.628906 687.238281 C 1395.621094 694.761719 1387.890625 707.738281 1386.550781 721.578125 L 1132.429688 868.289062 C 1119.96875 875.480469 1115.730469 891.308594 1122.921875 903.761719 C 1130.109375 916.210938 1145.910156 920.429688 1158.371094 913.238281 L 1412.480469 766.53125 C 1425.140625 772.28125 1440.289062 772.070312 1453.300781 764.550781 L 1636.730469 658.660156 C 1658.160156 646.289062 1665.441406 619.101562 1653.070312 597.679688 C 1645.339844 584.289062 1631.839844 576.410156 1617.550781 575.410156 Z M 1611.929688 608.210938 C 1616.460938 607.640625 1621.089844 609.769531 1623.539062 613.988281 C 1626.789062 619.621094 1624.878906 626.769531 1619.25 630.019531 L 1598.898438 641.78125 C 1593.269531 645.03125 1586.128906 643.101562 1582.878906 637.46875 C 1579.621094 631.839844 1581.539062 624.691406 1587.160156 621.441406 L 1607.511719 609.699219 C 1608.910156 608.890625 1610.410156 608.398438 1611.929688 608.210938 Z M 1611.929688 608.210938 "/>
<path fill-rule="nonzero" fill="rgb(47.068787%, 26.660156%, 12.939453%)" fill-opacity="1" d="M 1120.589844 1232.699219 C 984.894531 1311.042969 811.378906 1264.550781 733.03125 1128.851562 C 654.6875 993.148438 701.179688 819.640625 836.878906 741.289062 C 972.578125 662.941406 1146.089844 709.441406 1224.441406 845.140625 C 1262.058594 910.300781 1272.261719 987.738281 1252.78125 1060.429688 C 1233.308594 1133.109375 1185.761719 1195.070312 1120.589844 1232.699219 Z M 1120.589844 1232.699219 "/>
<path fill-rule="nonzero" fill="rgb(100%, 100%, 100%)" fill-opacity="1" d="M 1212.660156 904.089844 C 1226.648438 1027.21875 1163.378906 1146.660156 1051.308594 1208.660156 C 1033.21875 1218.589844 1014.179688 1226.851562 994.445312 1233.308594 C 1024.109375 1227.511719 1052.609375 1217.210938 1078.871094 1202.789062 C 1187.71875 1142.589844 1242.171875 1021.019531 1212.660156 904.089844 Z M 1212.660156 904.089844 "/>
<path fill-rule="nonzero" fill="rgb(100%, 100%, 100%)" fill-opacity="1" d="M 744.8125 1069.898438 C 730.816406 946.769531 794.085938 827.328125 906.160156 765.328125 C 924.25 755.390625 943.292969 747.140625 963.027344 740.679688 C 933.363281 746.480469 904.863281 756.78125 878.601562 771.199219 C 769.75 831.398438 715.300781 952.96875 744.8125 1069.898438 Z M 744.8125 1069.898438 "/>
<path fill-rule="nonzero" fill="rgb(47.068787%, 26.660156%, 12.939453%)" fill-opacity="1" d="M 903.53125 448.300781 C 805.828125 451.859375 778.527344 592.359375 778.527344 592.359375 C 571.105469 680.140625 681.3125 796.769531 746.0625 847.691406 L 751.6875 840.761719 C 593.90625 658.640625 804.75 607.75 804.75 607.75 C 895.492188 352.898438 1059.691406 560.808594 1108.359375 631.230469 C 1104.671875 645.148438 1097.648438 665 1084.070312 687.371094 C 1111.390625 665.378906 1127.839844 655.679688 1144.601562 653.539062 C 1153.429688 653.890625 1161.75 654.449219 1169.640625 655.128906 C 1170.46875 655.328125 1171.230469 655.378906 1172.109375 655.578125 L 1171.710938 655.28125 C 1419.78125 677.960938 1208.828125 856.441406 1208.828125 856.441406 C 1497.78125 658.929688 1142.019531 620.558594 1142.019531 620.558594 C 1035.308594 487.371094 958.351562 446.269531 903.546875 448.269531 Z M 918.300781 515.460938 C 862.789062 519.410156 834.054688 579.210938 834.054688 579.210938 C 944.835938 490.140625 1046.71875 593.679688 1046.71875 593.679688 C 994.546875 530.839844 951.605469 513.101562 918.300781 515.460938 Z M 774.699219 647.28125 C 683.710938 682.101562 731.574219 777.808594 731.574219 777.808594 C 725.492188 678.230469 774.699219 647.28125 774.699219 647.28125 Z M 1162.21875 672.828125 C 1136.210938 672.300781 1112.660156 677.910156 1101.609375 690.21875 C 1199.519531 673.75 1246.96875 730 1262.601562 759.621094 C 1288.558594 704.949219 1219.441406 674.019531 1162.21875 672.828125 Z M 1162.21875 672.828125 "/>
<path fill-rule="nonzero" fill="rgb(39.208984%, 22.363281%, 10.984802%)" fill-opacity="1" d="M 909.402344 917.398438 C 911.203125 912.578125 912.84375 911.300781 916.628906 909.46875 C 919.757812 908 923.328125 907.820312 926.644531 909.421875 C 927.042969 909.621094 927.316406 909.769531 927.71875 909.929688 C 939.546875 915.558594 951.554688 920.839844 963.710938 925.761719 C 996.890625 939.289062 1031.640625 950.328125 1067.410156 959.101562 C 1074.601562 960.859375 1079.878906 966.941406 1078.871094 974.238281 C 1076.929688 988.160156 1075 1002.078125 1073.070312 1016 C 1079.03125 1016.828125 1084.988281 1017.589844 1090.96875 1018.308594 C 1181.941406 1029.148438 1274.21875 1025.890625 1364.808594 1010.769531 C 1368.339844 1002.980469 1375.789062 996.910156 1385.191406 995.109375 C 1447.191406 983.371094 1508.308594 966.050781 1567.53125 943.910156 C 1581.351562 938.738281 1596.761719 944.621094 1601.941406 957.539062 C 1607.128906 970.460938 1599.851562 985.519531 1585.171875 991.019531 C 1523.378906 1014.191406 1459.5 1032.289062 1394.539062 1044.539062 C 1384.609375 1046.410156 1375.191406 1043.21875 1369.179688 1037.03125 C 1276.308594 1052.488281 1181.519531 1055.808594 1087.828125 1044.730469 C 1081.679688 1044.011719 1075.550781 1043.210938 1069.410156 1042.359375 C 1067.46875 1056.289062 1065.539062 1070.199219 1063.609375 1084.121094 C 1062.539062 1091.429688 1054.988281 1095.730469 1046.308594 1095.039062 C 1003.550781 1091.621094 960.582031 1085.269531 917.792969 1075.511719 L 917.789062 1075.511719 C 902.816406 1072.101562 887.9375 1068.269531 873.167969 1064.011719 C 872.773438 1063.859375 872.230469 1063.761719 871.828125 1063.609375 C 867.691406 1062.421875 864.535156 1059.640625 862.722656 1056.359375 C 860.617188 1052.429688 860.480469 1048.941406 861.648438 1045.851562 C 877.566406 1003.03125 893.484375 960.21875 909.398438 917.398438 Z M 911.890625 991.101562 C 911.082031 993.640625 912.558594 996.46875 915.328125 997.429688 C 923.277344 1000.179688 931.285156 1002.78125 939.328125 1005.25 C 970.511719 1014.808594 1002.269531 1022.390625 1034.351562 1028.191406 C 1037.261719 1028.710938 1039.949219 1026.980469 1040.421875 1024.339844 C 1040.820312 1021.699219 1038.929688 1019.171875 1036.070312 1018.648438 C 1004.351562 1012.921875 972.957031 1005.429688 942.167969 995.980469 C 934.203125 993.550781 926.277344 990.960938 918.398438 988.25 C 915.644531 987.289062 912.746094 988.539062 911.886719 991.101562 Z M 925.167969 952.558594 C 924.09375 955.03125 925.417969 957.921875 927.988281 959.011719 C 935.503906 962.171875 943.089844 965.191406 950.726562 968.078125 C 979.605469 979.050781 1009.371094 988.230469 1039.730469 995.769531 C 1042.480469 996.460938 1045.230469 994.890625 1045.878906 992.28125 C 1046.550781 989.679688 1044.808594 987.050781 1042.148438 986.371094 C 1011.910156 978.871094 982.285156 969.730469 953.582031 958.800781 C 946.238281 956.019531 938.941406 953.109375 931.703125 950.070312 C 929.121094 949 926.210938 950.089844 925.175781 952.558594 Z M 898.910156 1029.75 C 898.238281 1032.351562 899.984375 1035.128906 903.019531 1035.949219 C 911.292969 1038.25 919.59375 1040.421875 927.933594 1042.441406 C 961.359375 1050.558594 995.042969 1056.519531 1028.761719 1060.550781 C 1031.800781 1060.941406 1034.441406 1059.050781 1034.699219 1056.359375 C 1034.941406 1053.679688 1032.769531 1051.25 1029.738281 1050.898438 C 996.625 1046.941406 963.566406 1041.089844 930.777344 1033.148438 C 922.277344 1031.089844 913.816406 1028.890625 905.386719 1026.539062 C 902.476562 1025.710938 899.574219 1027.128906 898.902344 1029.738281 L 898.898438 1029.738281 Z M 898.910156 1029.75 "/>
<path fill-rule="nonzero" fill="rgb(100%, 100%, 100%)" fill-opacity="1" d="M 938.316406 895.089844 C 936.121094 895.121094 933.976562 895.609375 932.023438 896.53125 L 931.976562 896.53125 C 928.769531 898.078125 926.769531 900.960938 924.886719 904.390625 C 924.785156 904.589844 924.4375 904.488281 924.375 904.691406 C 924.289062 904.769531 924.203125 904.851562 924.125 904.929688 C 924.039062 905.011719 923.957031 905.089844 923.878906 905.179688 C 923.789062 905.261719 923.707031 905.339844 923.628906 905.429688 C 923.625 905.53125 923.625 905.628906 923.628906 905.730469 C 923.542969 905.808594 923.457031 905.890625 923.378906 905.980469 C 923.378906 906.058594 923.378906 906.140625 923.378906 906.230469 L 923.132812 906.230469 L 875.386719 1034.71875 C 873.898438 1038.660156 874.230469 1043.511719 876.695312 1048.109375 C 878.914062 1052.109375 882.703125 1055.308594 887.714844 1056.761719 C 888.363281 1056.960938 888.828125 1057.210938 889.023438 1057.269531 C 889.105469 1057.28125 889.1875 1057.28125 889.269531 1057.269531 C 904.097656 1061.550781 918.824219 1065.410156 933.859375 1068.828125 C 976.8125 1078.621094 1019.960938 1085.058594 1062.871094 1088.480469 C 1067.820312 1088.878906 1072.710938 1087.671875 1076.511719 1085.339844 C 1080.308594 1083.019531 1083.171875 1079.238281 1083.859375 1074.578125 L 1089.089844 1036.308594 C 1094.191406 1037 1099.210938 1037.539062 1104.320312 1038.140625 C 1198.261719 1049.238281 1293.160156 1045.75 1386.230469 1030.28125 L 1386.480469 1030.28125 C 1393.25 1035.929688 1402.078125 1039.738281 1411.941406 1037.878906 C 1477.089844 1025.589844 1541.140625 1007.359375 1603.101562 984.121094 C 1619.289062 978.050781 1627.890625 961.070312 1621.980469 946.339844 C 1616.089844 931.648438 1598.511719 925.140625 1583.171875 930.878906 C 1524.121094 952.960938 1463.238281 970.308594 1401.429688 982.019531 C 1392.210938 983.78125 1385.640625 990.171875 1381.238281 997.480469 C 1290.941406 1012.558594 1198.878906 1015.890625 1108.25 1005.078125 C 1103.429688 1004.511719 1098.640625 1003.910156 1093.839844 1003.261719 L 1099.078125 964.699219 C 1100.328125 955.621094 1093.699219 948.171875 1085.179688 946.078125 C 1049.550781 937.351562 1014.871094 926.238281 981.855469 912.769531 C 969.757812 907.878906 957.691406 902.660156 945.921875 897.050781 C 945.722656 896.949219 945.476562 896.75 944.867188 896.511719 C 942.75 895.5 940.515625 895.050781 938.320312 895.070312 Z M 938.316406 895.089844 "/>
<path fill-rule="nonzero" fill="rgb(47.068787%, 26.660156%, 12.939453%)" fill-opacity="1" d="M 931.976562 896.53125 C 928.769531 898.078125 926.777344 900.96875 924.894531 904.398438 C 924.796875 904.601562 924.449219 904.449219 924.367188 904.648438 C 924.28125 904.730469 924.199219 904.808594 924.121094 904.890625 C 924.03125 904.96875 923.949219 905.058594 923.871094 905.140625 C 923.785156 905.21875 923.699219 905.308594 923.621094 905.390625 C 923.621094 905.480469 923.621094 905.558594 923.621094 905.640625 C 923.535156 905.71875 923.453125 905.808594 923.375 905.890625 C 923.371094 905.96875 923.371094 906.058594 923.375 906.140625 L 923.125 906.140625 L 875.398438 1034.640625 C 873.910156 1038.570312 874.246094 1043.421875 876.710938 1048.019531 C 878.925781 1052.019531 882.710938 1055.21875 887.722656 1056.671875 C 888.371094 1056.871094 888.84375 1057.121094 889.035156 1057.191406 C 889.117188 1057.191406 889.203125 1057.191406 889.285156 1057.191406 C 904.113281 1061.460938 918.832031 1065.308594 933.867188 1068.730469 C 976.820312 1078.519531 1019.980469 1084.96875 1062.890625 1088.398438 C 1067.839844 1088.800781 1072.730469 1087.578125 1076.53125 1085.25 C 1080.328125 1082.929688 1083.191406 1079.160156 1083.871094 1074.5 L 1089.121094 1036.210938 C 1094.210938 1036.898438 1099.21875 1037.441406 1104.328125 1038.050781 C 1198.269531 1049.148438 1293.160156 1045.660156 1386.238281 1030.179688 L 1386.488281 1030.179688 C 1393.261719 1035.839844 1402.070312 1039.640625 1411.929688 1037.78125 C 1477.089844 1025.488281 1541.140625 1007.261719 1603.109375 984.019531 C 1619.289062 977.949219 1627.898438 960.980469 1621.988281 946.261719 C 1616.101562 931.570312 1598.519531 925.050781 1583.179688 930.78125 C 1524.121094 952.859375 1463.25 970.210938 1401.441406 981.929688 C 1392.21875 983.679688 1385.640625 990.089844 1381.25 997.398438 C 1290.941406 1012.480469 1198.878906 1015.808594 1108.25 1005 C 1103.429688 1004.429688 1098.628906 1003.808594 1093.820312 1003.171875 L 1099.070312 964.621094 C 1100.320312 955.53125 1093.691406 948.078125 1085.171875 946 C 1049.539062 937.261719 1014.859375 926.160156 981.84375 912.691406 C 969.746094 907.800781 957.6875 902.558594 945.914062 896.960938 C 945.71875 896.859375 945.46875 896.710938 944.867188 896.441406 C 940.632812 894.410156 935.921875 894.609375 932.015625 896.441406 Z M 934.859375 902.558594 C 937.214844 901.460938 939.539062 901.410156 941.9375 902.558594 C 942.023438 902.570312 942.105469 902.570312 942.1875 902.558594 C 942.386719 902.660156 942.636719 902.808594 943.238281 903.089844 C 955.125 908.738281 967.210938 913.878906 979.429688 918.820312 C 1012.769531 932.421875 1047.628906 943.578125 1083.539062 952.390625 C 1089.378906 953.820312 1093.21875 958.410156 1092.460938 963.929688 L 1086.691406 1005.621094 C 1086.679688 1005.710938 1086.679688 1005.789062 1086.691406 1005.871094 C 1086.679688 1005.960938 1086.679688 1006.039062 1086.691406 1006.121094 C 1086.648438 1006.378906 1086.648438 1006.640625 1086.691406 1006.910156 C 1086.769531 1006.988281 1086.851562 1007.078125 1086.929688 1007.160156 C 1086.929688 1007.238281 1086.929688 1007.320312 1086.929688 1007.398438 C 1087.011719 1007.488281 1087.089844 1007.570312 1087.179688 1007.648438 C 1087.179688 1007.730469 1087.179688 1007.820312 1087.179688 1007.898438 C 1087.261719 1007.988281 1087.339844 1008.070312 1087.429688 1008.148438 C 1087.511719 1008.230469 1087.589844 1008.320312 1087.679688 1008.398438 C 1087.761719 1008.480469 1087.839844 1008.570312 1087.929688 1008.640625 C 1088.011719 1008.730469 1088.089844 1008.820312 1088.179688 1008.890625 C 1088.261719 1008.898438 1088.339844 1008.898438 1088.429688 1008.890625 C 1088.5 1008.980469 1088.589844 1009.058594 1088.671875 1009.140625 C 1088.929688 1009.179688 1089.199219 1009.179688 1089.460938 1009.140625 C 1095.441406 1009.980469 1101.300781 1010.789062 1107.289062 1011.5 C 1198.601562 1022.390625 1291.261719 1019.070312 1382.128906 1003.898438 C 1382.210938 1003.898438 1382.289062 1003.898438 1382.378906 1003.898438 C 1382.460938 1003.820312 1382.550781 1003.738281 1382.628906 1003.648438 C 1382.710938 1003.648438 1382.789062 1003.648438 1382.878906 1003.648438 C 1382.960938 1003.570312 1383.039062 1003.488281 1383.121094 1003.398438 C 1383.199219 1003.398438 1383.289062 1003.398438 1383.371094 1003.398438 C 1383.460938 1003.320312 1383.539062 1003.238281 1383.621094 1003.148438 C 1383.710938 1003.070312 1383.789062 1002.988281 1383.871094 1002.898438 C 1383.949219 1002.820312 1384.039062 1002.738281 1384.121094 1002.660156 C 1384.199219 1002.578125 1384.289062 1002.5 1384.359375 1002.410156 C 1384.371094 1002.320312 1384.371094 1002.238281 1384.359375 1002.160156 C 1387.441406 995.371094 1394.078125 989.859375 1402.460938 988.261719 C 1464.648438 976.480469 1525.859375 959.320312 1585.25 937.121094 C 1597.550781 932.519531 1610.929688 937.519531 1615.410156 948.660156 C 1619.859375 959.769531 1613.878906 973.089844 1600.71875 978.03125 C 1539.101562 1001.140625 1475.359375 1019.050781 1410.589844 1031.269531 C 1401.710938 1032.941406 1393.238281 1030.078125 1388.039062 1024.710938 C 1387.960938 1024.621094 1387.878906 1024.539062 1387.789062 1024.460938 C 1387.699219 1024.460938 1387.621094 1024.460938 1387.539062 1024.460938 C 1387.460938 1024.371094 1387.378906 1024.289062 1387.289062 1024.210938 C 1387.210938 1024.128906 1387.128906 1024.039062 1387.039062 1023.960938 C 1386.960938 1023.960938 1386.878906 1023.960938 1386.789062 1023.960938 C 1386.710938 1023.960938 1386.628906 1023.960938 1386.550781 1023.960938 C 1386.460938 1023.878906 1386.378906 1023.800781 1386.300781 1023.71875 C 1386.039062 1023.691406 1385.769531 1023.691406 1385.511719 1023.71875 C 1385.429688 1023.710938 1385.339844 1023.710938 1385.261719 1023.71875 C 1292.660156 1039.140625 1198.28125 1042.621094 1104.921875 1031.589844 C 1098.800781 1030.859375 1092.679688 1030.070312 1086.558594 1029.21875 C 1086.480469 1029.21875 1086.398438 1029.21875 1086.308594 1029.21875 C 1086.230469 1029.21875 1086.148438 1029.21875 1086.070312 1029.21875 C 1085.808594 1029.191406 1085.539062 1029.191406 1085.28125 1029.21875 C 1085.191406 1029.21875 1085.109375 1029.21875 1085.03125 1029.21875 C 1084.941406 1029.300781 1084.859375 1029.390625 1084.78125 1029.46875 C 1084.691406 1029.550781 1084.609375 1029.628906 1084.539062 1029.71875 C 1084.449219 1029.71875 1084.371094 1029.71875 1084.289062 1029.71875 C 1084.199219 1029.800781 1084.121094 1029.878906 1084.039062 1029.96875 C 1083.949219 1030.050781 1083.871094 1030.128906 1083.789062 1030.21875 C 1083.699219 1030.300781 1083.621094 1030.378906 1083.539062 1030.460938 C 1083.449219 1030.550781 1083.371094 1030.628906 1083.289062 1030.710938 C 1083.289062 1030.800781 1083.289062 1030.878906 1083.289062 1030.960938 C 1083.199219 1031.039062 1083.121094 1031.121094 1083.039062 1031.210938 C 1083.03125 1031.390625 1083.03125 1031.558594 1083.039062 1031.730469 L 1077.269531 1073.691406 C 1076.878906 1076.339844 1075.488281 1078.25 1073.078125 1079.730469 C 1070.660156 1081.199219 1067.101562 1082.121094 1063.378906 1081.820312 C 1020.761719 1078.421875 978.023438 1071.871094 935.398438 1062.148438 C 920.570312 1058.789062 905.707031 1055.089844 891.078125 1050.878906 L 890.832031 1050.878906 C 890.332031 1050.730469 889.910156 1050.378906 889.78125 1050.359375 C 889.699219 1050.351562 889.617188 1050.351562 889.53125 1050.359375 C 886.277344 1049.421875 883.863281 1047.398438 882.453125 1044.851562 C 880.699219 1041.578125 880.816406 1039.230469 881.667969 1036.980469 L 928.871094 909.53125 C 928.957031 909.449219 929.042969 909.371094 929.121094 909.28125 C 929.125 909.199219 929.125 909.109375 929.121094 909.03125 C 929.21875 908.871094 929.300781 908.691406 929.367188 908.511719 C 931.003906 904.121094 931.292969 904.210938 934.875 902.480469 Z M 949.804688 937.179688 C 945.6875 935.460938 940.804688 937.191406 939.054688 941.371094 C 937.207031 945.621094 939.402344 950.371094 943.511719 952.121094 C 951.070312 955.300781 958.65625 958.398438 966.328125 961.308594 C 995.339844 972.320312 1025.269531 981.53125 1055.75 989.101562 C 1060.148438 990.191406 1064.890625 987.5 1065.980469 983.070312 C 1067.128906 978.609375 1063.988281 974.460938 1059.691406 973.371094 C 1029.570312 965.898438 1000.140625 956.710938 971.574219 945.828125 C 964.265625 943.058594 957.011719 940.199219 949.804688 937.179688 Z M 939.054688 941.371094 L 941.152344 939.539062 C 941.070312 939.539062 940.988281 939.539062 940.902344 939.539062 C 940.820312 939.539062 940.738281 939.539062 940.65625 939.539062 C 940.566406 939.621094 940.484375 939.699219 940.40625 939.789062 C 940.320312 939.871094 940.238281 939.949219 940.160156 940.039062 C 940.074219 940.03125 939.992188 940.03125 939.910156 940.039062 C 939.824219 940.121094 939.738281 940.199219 939.660156 940.28125 C 939.574219 940.359375 939.492188 940.449219 939.414062 940.53125 C 939.410156 940.621094 939.410156 940.699219 939.414062 940.78125 C 939.324219 940.859375 939.242188 940.941406 939.164062 941.03125 C 939.160156 941.109375 939.160156 941.199219 939.164062 941.28125 Z M 947.183594 943.210938 C 954.460938 946.261719 961.832031 949.070312 969.210938 951.859375 C 998.046875 962.839844 1027.75 972.128906 1058.109375 979.660156 C 1059.128906 979.910156 1059.621094 980.75 1059.429688 981.5 C 1059.230469 982.28125 1058.441406 982.820312 1057.328125 982.539062 C 1027.089844 975.03125 997.4375 965.929688 968.691406 955.011719 C 961.09375 952.128906 953.621094 949.230469 946.136719 946.089844 C 945.128906 945.640625 944.789062 944.679688 945.085938 943.988281 C 945.386719 943.230469 946.152344 942.78125 947.183594 943.210938 Z M 936.429688 975.199219 C 933.847656 974.308594 932.039062 976.679688 929.875 978.089844 C 929.792969 978.078125 929.710938 978.078125 929.628906 978.089844 C 929.550781 978 929.464844 977.910156 929.378906 977.839844 C 929.296875 977.828125 929.214844 977.828125 929.132812 977.839844 C 929.046875 977.828125 928.964844 977.828125 928.882812 977.839844 L 929.410156 978.621094 C 928.28125 979.519531 926.234375 978.71875 925.738281 980.199219 C 924.363281 984.511719 926.929688 989.191406 931.242188 990.691406 C 939.226562 993.441406 947.289062 996.078125 955.371094 998.558594 C 986.6875 1008.148438 1018.371094 1015.820312 1050.570312 1021.628906 C 1055.070312 1022.441406 1059.730469 1019.601562 1060.53125 1015.078125 C 1060.539062 1014.988281 1060.539062 1014.910156 1060.53125 1014.828125 C 1061.210938 1010.359375 1057.910156 1006.449219 1053.449219 1005.648438 C 1021.851562 999.941406 990.75 992.230469 960.089844 982.828125 C 952.164062 980.398438 944.328125 977.929688 936.488281 975.230469 Z M 925.679688 980.179688 C 925.59375 980.269531 925.511719 980.351562 925.433594 980.429688 C 925.429688 980.519531 925.429688 980.601562 925.433594 980.679688 C 925.429688 980.769531 925.429688 980.851562 925.433594 980.929688 C 925.398438 981.191406 925.398438 981.460938 925.433594 981.710938 C 925.511719 981.808594 925.59375 981.890625 925.679688 981.960938 C 925.675781 982.050781 925.675781 982.128906 925.679688 982.210938 C 925.730469 982.480469 925.8125 982.75 925.929688 983 C 926.007812 983.089844 926.089844 983.171875 926.175781 983.25 C 926.253906 983.339844 926.339844 983.421875 926.425781 983.5 C 926.507812 983.5 926.589844 983.5 926.675781 983.5 Z M 934.074219 981.5 C 941.988281 984.230469 949.9375 986.648438 957.9375 989.101562 C 988.859375 998.589844 1020.5 1006.171875 1052.339844 1011.921875 C 1053.429688 1012.121094 1053.601562 1013.039062 1053.660156 1013.75 C 1053.410156 1014.410156 1053.03125 1015.28125 1051.820312 1015.058594 C 1019.871094 1009.289062 988.203125 1001.769531 957.152344 992.25 C 949.144531 989.789062 941.199219 987.109375 933.285156 984.378906 C 932.070312 983.980469 931.730469 983.050781 931.976562 982.28125 C 932.222656 981.550781 932.84375 981.070312 934.074219 981.5 Z M 923.058594 1013.488281 C 920.4375 1012.761719 918.867188 1015.160156 916.765625 1016.640625 C 916.679688 1016.628906 916.597656 1016.628906 916.515625 1016.640625 C 916.433594 1016.628906 916.347656 1016.628906 916.265625 1016.640625 C 916.09375 1016.621094 915.917969 1016.621094 915.746094 1016.640625 L 915.992188 1017.160156 C 914.949219 1018.109375 912.964844 1017.511719 912.582031 1018.988281 C 912.582031 1019.078125 912.582031 1019.160156 912.582031 1019.238281 C 912.582031 1019.320312 912.582031 1019.410156 912.582031 1019.488281 C 912.582031 1019.570312 912.582031 1019.660156 912.582031 1019.738281 C 912.582031 1019.820312 912.582031 1019.910156 912.582031 1019.988281 C 912.550781 1020.25 912.550781 1020.511719 912.582031 1020.769531 C 912.664062 1020.859375 912.746094 1020.941406 912.832031 1021.019531 C 912.828125 1021.109375 912.828125 1021.191406 912.832031 1021.269531 C 912.910156 1021.359375 912.992188 1021.441406 913.082031 1021.519531 C 913.078125 1021.601562 913.078125 1021.679688 913.082031 1021.769531 C 913.160156 1021.859375 913.242188 1021.941406 913.328125 1022.019531 C 913.40625 1022.101562 913.492188 1022.191406 913.578125 1022.269531 C 913.65625 1022.351562 913.738281 1022.429688 913.828125 1022.511719 C 913.910156 1022.519531 913.992188 1022.519531 914.074219 1022.511719 C 914.324219 1022.628906 914.589844 1022.710938 914.859375 1022.761719 C 914.878906 1022.808594 915.109375 1022.710938 915.109375 1022.761719 C 915.1875 1022.851562 915.269531 1022.929688 915.355469 1023.011719 C 916.457031 1025.289062 916.390625 1028.328125 919.03125 1029.039062 C 927.253906 1031.328125 935.648438 1033.589844 943.941406 1035.601562 C 977.503906 1043.75 1011.328125 1049.640625 1045.171875 1053.691406 C 1049.761719 1054.261719 1054.171875 1051.289062 1054.609375 1046.609375 C 1055.058594 1041.960938 1051.308594 1037.960938 1046.738281 1037.429688 C 1013.839844 1033.480469 980.972656 1027.75 948.402344 1019.859375 C 939.941406 1017.820312 931.355469 1015.648438 922.964844 1013.308594 Z M 913.617188 1017.160156 C 913.527344 1017.238281 913.445312 1017.320312 913.367188 1017.410156 C 913.363281 1017.5 913.363281 1017.578125 913.367188 1017.660156 L 913.894531 1017.140625 C 913.8125 1017.140625 913.730469 1017.140625 913.644531 1017.140625 Z M 913.09375 1017.949219 C 913.007812 1018.03125 912.925781 1018.109375 912.84375 1018.199219 C 912.84375 1018.28125 912.84375 1018.359375 912.84375 1018.441406 Z M 921.222656 1019.78125 C 929.6875 1022.140625 938.386719 1024.269531 946.921875 1026.339844 C 979.84375 1034.320312 1013.078125 1040.191406 1046.320312 1044.171875 C 1047.789062 1044.371094 1048.21875 1045.308594 1048.148438 1046.011719 C 1048.109375 1046.71875 1047.539062 1047.5 1046.058594 1047.320312 C 1012.460938 1043.308594 978.910156 1037.308594 945.613281 1029.21875 C 937.3125 1027.210938 928.9375 1025.21875 920.703125 1022.929688 C 919.277344 1022.53125 918.773438 1021.539062 918.863281 1020.828125 C 918.867188 1020.75 918.867188 1020.671875 918.863281 1020.589844 C 918.886719 1020.480469 919.0625 1020.390625 919.113281 1020.339844 C 919.410156 1019.78125 919.976562 1019.460938 921.210938 1019.808594 Z M 921.222656 1019.78125 "/>
<path fill-rule="nonzero" fill="rgb(47.068787%, 26.660156%, 12.939453%)" fill-opacity="1" d="M 849.105469 1482.222656 L 849.105469 1487.96875 C 849.105469 1494.351562 848.148438 1498.980469 846.234375 1501.851562 C 844.636719 1504.726562 842.5625 1507.917969 840.011719 1511.429688 C 825.644531 1529.625 809.367188 1548.136719 791.171875 1566.96875 C 772.976562 1585.484375 753.664062 1602.242188 733.234375 1617.246094 C 713.125 1632.566406 692.21875 1645.015625 670.511719 1654.589844 C 649.125 1664.167969 627.898438 1668.957031 606.832031 1668.957031 C 592.46875 1668.957031 579.378906 1666.722656 567.570312 1662.253906 C 555.757812 1657.785156 545.542969 1651.398438 536.925781 1643.101562 C 528.625 1634.800781 522.082031 1624.585938 517.292969 1612.457031 C 512.824219 1600.007812 510.589844 1585.804688 510.589844 1569.84375 C 510.589844 1559.628906 511.707031 1549.09375 513.941406 1538.242188 C 516.496094 1527.070312 519.6875 1515.898438 523.515625 1504.726562 C 527.667969 1493.554688 532.136719 1482.539062 536.921875 1471.6875 C 542.03125 1460.835938 546.976562 1450.300781 551.765625 1440.085938 C 553.363281 1437.851562 555.597656 1434.5 558.46875 1430.03125 C 561.660156 1425.5625 563.734375 1422.210938 564.695312 1419.976562 L 560.863281 1419.976562 C 528.304688 1419.976562 503.40625 1424.445312 486.167969 1433.382812 C 469.25 1442 460.792969 1453.175781 460.792969 1466.898438 C 460.792969 1469.453125 461.269531 1471.6875 462.226562 1473.601562 C 462.867188 1475.519531 463.1875 1477.273438 463.1875 1478.871094 C 463.1875 1479.507812 462.867188 1480.945312 462.226562 1483.179688 C 461.589844 1485.09375 459.992188 1486.050781 457.441406 1486.050781 C 455.207031 1486.050781 453.292969 1485.253906 451.695312 1483.65625 C 449.78125 1482.0625 448.183594 1480.144531 446.910156 1477.914062 C 445.632812 1475.359375 444.675781 1472.964844 444.035156 1470.730469 C 443.078125 1468.175781 442.601562 1465.941406 442.601562 1464.027344 C 442.933594 1450.9375 447.402344 1440.40625 456.007812 1432.425781 C 464.625 1424.125 475 1417.742188 487.128906 1413.273438 C 499.578125 1408.484375 512.664062 1405.292969 526.390625 1403.695312 C 540.4375 1401.78125 552.726562 1400.503906 563.257812 1399.867188 C 569.003906 1399.546875 573.792969 1398.429688 577.625 1396.515625 C 581.773438 1394.28125 585.445312 1391.25 588.636719 1387.417969 C 596.296875 1377.84375 604.914062 1368.425781 614.492188 1359.167969 C 624.066406 1349.59375 634.28125 1340.8125 645.136719 1332.835938 C 656.308594 1324.855469 667.957031 1317.992188 680.089844 1312.246094 C 692.21875 1306.5 704.507812 1302.351562 716.957031 1299.796875 C 723.019531 1297.242188 729.722656 1295.964844 737.066406 1295.964844 C 743.449219 1295.964844 749.832031 1296.921875 756.21875 1298.839844 C 762.601562 1300.433594 768.347656 1302.828125 773.453125 1306.019531 C 778.882812 1309.214844 783.191406 1313.042969 786.382812 1317.511719 C 789.894531 1321.980469 791.648438 1326.929688 791.648438 1332.355469 C 791.648438 1337.78125 790.054688 1342.890625 786.863281 1347.675781 C 783.992188 1352.464844 780 1356.933594 774.894531 1361.082031 C 765.316406 1368.746094 756.0625 1375.605469 747.121094 1381.671875 C 738.183594 1387.738281 728.929688 1393.164062 719.351562 1397.953125 C 709.777344 1402.421875 699.5625 1406.25 688.707031 1409.441406 C 677.855469 1412.316406 665.726562 1414.550781 652.320312 1416.144531 C 644.976562 1417.105469 638.914062 1417.902344 634.125 1418.539062 C 629.335938 1418.859375 626.144531 1420.613281 624.546875 1423.808594 C 616.886719 1432.425781 609.386719 1442.960938 602.042969 1455.410156 C 595.023438 1467.539062 588.636719 1480.464844 582.890625 1494.191406 C 577.148438 1507.917969 572.519531 1521.960938 569.007812 1536.328125 C 565.816406 1550.371094 564.21875 1563.777344 564.21875 1576.546875 C 564.21875 1585.484375 565.179688 1593.785156 567.09375 1601.445312 C 569.328125 1609.105469 572.679688 1615.808594 577.148438 1621.554688 C 581.617188 1627.300781 587.363281 1631.769531 594.386719 1634.960938 C 601.40625 1638.152344 610.027344 1639.75 620.242188 1639.75 C 627.902344 1639.75 636.519531 1638.792969 646.097656 1636.875 C 666.207031 1630.8125 685.675781 1621.714844 704.511719 1609.585938 C 723.34375 1597.136719 741.21875 1583.570312 758.136719 1568.886719 C 775.375 1554.203125 791.492188 1539.199219 806.496094 1523.878906 C 821.816406 1508.554688 836.023438 1494.671875 849.109375 1482.222656 Z M 771.0625 1328.523438 C 764.675781 1324.695312 757.972656 1322.777344 750.953125 1322.777344 C 741.375 1322.777344 731.160156 1325.332031 720.308594 1330.441406 C 709.457031 1335.546875 698.921875 1341.773438 688.707031 1349.113281 C 678.8125 1356.136719 669.714844 1363.636719 661.414062 1371.617188 C 653.117188 1379.277344 646.890625 1385.664062 642.742188 1390.769531 C 644.015625 1391.085938 646.09375 1391.246094 648.964844 1391.246094 C 655.667969 1391.246094 663.332031 1390.289062 671.949219 1388.375 C 680.566406 1386.140625 689.34375 1383.425781 698.28125 1380.234375 C 707.539062 1376.722656 716.476562 1372.894531 725.097656 1368.742188 C 733.714844 1364.273438 741.375 1359.804688 748.078125 1355.335938 C 755.101562 1350.867188 760.6875 1346.398438 764.835938 1341.929688 C 768.988281 1337.460938 771.0625 1333.3125 771.0625 1329.480469 Z M 771.0625 1328.523438 "/>
<path fill-rule="nonzero" fill="rgb(47.068787%, 26.660156%, 12.939453%)" fill-opacity="1" d="M 944.097656 1542.074219 C 949.84375 1539.839844 954.632812 1537.761719 958.460938 1535.847656 C 962.613281 1533.613281 966.441406 1530.898438 969.953125 1527.707031 C 973.785156 1524.195312 977.613281 1519.886719 981.445312 1514.78125 C 985.59375 1509.355469 990.542969 1502.332031 996.289062 1493.714844 C 1000.761719 1494.671875 1002.988281 1498.183594 1002.988281 1504.246094 C 1002.988281 1509.992188 1001.390625 1515.898438 998.203125 1521.960938 C 995.015625 1528.027344 990.703125 1533.933594 985.277344 1539.679688 C 980.167969 1545.105469 974.425781 1550.210938 968.039062 1555 C 961.65625 1559.46875 955.429688 1563.140625 949.367188 1566.011719 C 944.898438 1567.929688 941.546875 1569.523438 939.3125 1570.800781 C 937.394531 1571.757812 935.960938 1574.152344 935.003906 1577.984375 C 931.171875 1592.027344 924.148438 1602.722656 913.933594 1610.0625 C 903.71875 1617.085938 891.589844 1620.597656 877.546875 1620.597656 C 856.160156 1620.597656 839.558594 1613.734375 827.75 1600.007812 C 815.621094 1585.960938 809.554688 1567.609375 809.554688 1544.945312 C 809.554688 1530.898438 812.109375 1517.492188 817.214844 1504.726562 C 822.003906 1491.957031 829.027344 1480.464844 838.285156 1470.25 L 855.042969 1451.578125 C 858.871094 1447.109375 863.660156 1443.277344 869.40625 1440.085938 C 875.472656 1436.894531 882.332031 1435.296875 889.996094 1435.296875 C 899.570312 1435.296875 907.871094 1437.851562 914.890625 1442.960938 C 922.234375 1448.066406 928.140625 1454.449219 932.609375 1462.113281 C 937.078125 1469.773438 940.429688 1478.070312 942.664062 1487.007812 C 944.898438 1495.628906 946.011719 1503.609375 946.011719 1510.949219 C 946.011719 1515.738281 945.695312 1520.367188 945.054688 1524.835938 C 944.722656 1529.304688 944.402344 1535.050781 944.09375 1542.074219 Z M 923.988281 1542.074219 C 924.628906 1536.328125 925.265625 1530.582031 925.902344 1524.835938 C 926.539062 1519.089844 926.859375 1513.503906 926.859375 1508.078125 C 926.859375 1503.609375 926.222656 1498.5 924.945312 1492.753906 C 923.988281 1486.691406 922.234375 1481.105469 919.679688 1475.996094 C 917.445312 1470.570312 914.414062 1466.101562 910.582031 1462.589844 C 907.070312 1459.078125 902.601562 1457.324219 897.175781 1457.324219 C 894.304688 1457.324219 890.792969 1457.960938 886.640625 1459.238281 C 882.492188 1460.515625 880.417969 1462.910156 880.417969 1466.421875 C 880.417969 1467.699219 880.582031 1468.972656 880.914062 1470.25 C 881.554688 1471.527344 881.875 1472.804688 881.875 1474.082031 C 881.875 1478.871094 880.117188 1483.179688 876.605469 1487.007812 C 873.417969 1490.519531 871.820312 1494.511719 871.820312 1498.980469 C 871.820312 1503.769531 872.9375 1508.714844 875.171875 1513.824219 C 877.726562 1518.929688 881.078125 1523.71875 885.226562 1528.1875 C 889.375 1532.335938 894.164062 1535.847656 899.589844 1538.71875 C 905.335938 1541.273438 911.558594 1542.550781 918.261719 1542.550781 C 920.816406 1542.550781 922.734375 1542.390625 924.007812 1542.074219 Z M 857.914062 1537.761719 C 856.953125 1541.273438 856.15625 1544.785156 855.515625 1548.296875 C 854.878906 1551.488281 854.558594 1554.679688 854.558594 1557.871094 C 854.558594 1561.382812 855.035156 1565.535156 855.992188 1570.320312 C 856.953125 1575.109375 858.546875 1579.738281 860.78125 1584.207031 C 863.335938 1588.675781 866.367188 1592.507812 869.878906 1595.699219 C 873.707031 1598.570312 878.335938 1600.007812 883.761719 1600.007812 C 887.59375 1600.007812 891.265625 1599.050781 894.777344 1597.136719 C 898.285156 1595.21875 901.160156 1592.824219 903.394531 1589.953125 C 905.949219 1587.082031 907.863281 1584.046875 909.140625 1580.855469 C 910.738281 1577.34375 911.535156 1574.3125 911.535156 1571.757812 L 911.535156 1568.40625 C 893.019531 1562.980469 875.144531 1552.765625 857.910156 1537.761719 Z M 857.914062 1537.761719 "/>
<path fill-rule="nonzero" fill="rgb(47.068787%, 26.660156%, 12.939453%)" fill-opacity="1" d="M 1104.011719 1542.074219 C 1109.761719 1539.839844 1114.550781 1537.761719 1118.378906 1535.847656 C 1122.519531 1533.613281 1126.359375 1530.898438 1129.871094 1527.707031 C 1133.699219 1524.195312 1137.53125 1519.886719 1141.359375 1514.78125 C 1145.511719 1509.355469 1150.460938 1502.332031 1156.199219 1493.714844 C 1160.671875 1494.671875 1162.898438 1498.183594 1162.898438 1504.246094 C 1162.898438 1509.992188 1161.308594 1515.898438 1158.121094 1521.960938 C 1154.929688 1528.027344 1150.621094 1533.933594 1145.191406 1539.679688 C 1140.078125 1545.105469 1134.339844 1550.210938 1127.949219 1555 C 1121.570312 1559.46875 1115.339844 1563.140625 1109.28125 1566.011719 C 1104.808594 1567.929688 1101.460938 1569.523438 1099.230469 1570.800781 C 1097.308594 1571.757812 1095.878906 1574.152344 1094.910156 1577.984375 C 1091.089844 1592.027344 1084.058594 1602.722656 1073.851562 1610.0625 C 1063.628906 1617.085938 1051.5 1620.597656 1037.460938 1620.597656 C 1016.070312 1620.597656 999.472656 1613.734375 987.664062 1600.007812 C 975.535156 1585.960938 969.46875 1567.609375 969.46875 1544.945312 C 969.46875 1530.898438 972.023438 1517.492188 977.128906 1504.726562 C 981.917969 1491.957031 988.941406 1480.464844 998.195312 1470.25 L 1014.960938 1451.578125 C 1018.789062 1447.109375 1023.570312 1443.277344 1029.320312 1440.085938 C 1035.378906 1436.894531 1042.25 1435.296875 1049.910156 1435.296875 C 1059.480469 1435.296875 1067.78125 1437.851562 1074.808594 1442.960938 C 1082.148438 1448.066406 1088.050781 1454.449219 1092.519531 1462.113281 C 1096.988281 1469.773438 1100.339844 1478.070312 1102.578125 1487.007812 C 1104.808594 1495.628906 1105.929688 1503.609375 1105.929688 1510.949219 C 1105.929688 1515.738281 1105.609375 1520.367188 1104.96875 1524.835938 C 1104.640625 1529.304688 1104.320312 1535.050781 1104.011719 1542.074219 Z M 1083.898438 1542.074219 C 1084.539062 1536.328125 1085.179688 1530.582031 1085.820312 1524.835938 C 1086.449219 1519.089844 1086.769531 1513.503906 1086.769531 1508.078125 C 1086.769531 1503.609375 1086.140625 1498.5 1084.859375 1492.753906 C 1083.898438 1486.691406 1082.148438 1481.105469 1079.589844 1475.996094 C 1077.359375 1470.570312 1074.328125 1466.101562 1070.5 1462.589844 C 1066.980469 1459.078125 1062.519531 1457.324219 1057.089844 1457.324219 C 1054.21875 1457.324219 1050.710938 1457.960938 1046.558594 1459.238281 C 1042.410156 1460.515625 1040.328125 1462.910156 1040.328125 1466.421875 C 1040.328125 1467.699219 1040.5 1468.972656 1040.828125 1470.25 C 1041.46875 1471.527344 1041.789062 1472.804688 1041.789062 1474.082031 C 1041.789062 1478.871094 1040.03125 1483.179688 1036.519531 1487.007812 C 1033.328125 1490.519531 1031.730469 1494.511719 1031.730469 1498.980469 C 1031.730469 1503.769531 1032.851562 1508.714844 1035.089844 1513.824219 C 1037.640625 1518.929688 1040.988281 1523.71875 1045.140625 1528.1875 C 1049.289062 1532.335938 1054.078125 1535.847656 1059.5 1538.71875 C 1065.25 1541.273438 1071.480469 1542.550781 1078.179688 1542.550781 C 1080.730469 1542.550781 1082.648438 1542.390625 1083.929688 1542.074219 Z M 1017.828125 1537.761719 C 1016.871094 1541.273438 1016.070312 1544.785156 1015.429688 1548.296875 C 1014.789062 1551.488281 1014.46875 1554.679688 1014.46875 1557.871094 C 1014.46875 1561.382812 1014.949219 1565.535156 1015.910156 1570.320312 C 1016.871094 1575.109375 1018.460938 1579.738281 1020.691406 1584.207031 C 1023.25 1588.675781 1026.28125 1592.507812 1029.789062 1595.699219 C 1033.621094 1598.570312 1038.25 1600.007812 1043.679688 1600.007812 C 1047.511719 1600.007812 1051.179688 1599.050781 1054.691406 1597.136719 C 1058.199219 1595.21875 1061.070312 1592.824219 1063.308594 1589.953125 C 1065.859375 1587.082031 1067.78125 1584.046875 1069.058594 1580.855469 C 1070.648438 1577.34375 1071.449219 1574.3125 1071.449219 1571.757812 L 1071.449219 1568.40625 C 1052.929688 1562.980469 1035.058594 1552.765625 1017.820312 1537.761719 Z M 1017.828125 1537.761719 "/>
<path fill-rule="nonzero" fill="rgb(47.068787%, 26.660156%, 12.939453%)" fill-opacity="1" d="M 1339.25 1500.894531 C 1339.589844 1500.894531 1339.910156 1501.535156 1340.210938 1502.808594 C 1340.851562 1504.085938 1341.171875 1505.203125 1341.171875 1506.160156 C 1341.171875 1508.398438 1340.378906 1510.789062 1338.78125 1513.34375 C 1333.351562 1523.558594 1327.441406 1534.730469 1321.058594 1546.859375 C 1315 1558.671875 1308.289062 1569.84375 1300.949219 1580.375 C 1293.929688 1590.910156 1286.109375 1599.6875 1277.488281 1606.710938 C 1268.871094 1613.734375 1259.609375 1617.246094 1249.71875 1617.246094 C 1244.929688 1617.246094 1239.660156 1616.289062 1233.921875 1614.371094 C 1228.488281 1612.457031 1223.070312 1609.742188 1217.640625 1606.234375 C 1212.53125 1602.722656 1207.738281 1598.570312 1203.269531 1593.785156 C 1198.808594 1588.996094 1195.449219 1583.730469 1193.21875 1577.984375 L 1181.730469 1546.382812 C 1180.449219 1548.296875 1179.339844 1549.894531 1178.378906 1551.167969 C 1177.738281 1552.128906 1177.261719 1553.402344 1176.941406 1555 L 1170.238281 1597.136719 C 1170.238281 1609.265625 1166.089844 1615.328125 1157.789062 1615.328125 C 1152.679688 1615.328125 1148.691406 1613.894531 1145.820312 1611.019531 C 1142.628906 1607.828125 1140.230469 1604.15625 1138.640625 1600.007812 C 1137.039062 1595.859375 1136.078125 1591.550781 1135.769531 1587.082031 C 1135.128906 1582.292969 1134.808594 1578.300781 1134.808594 1575.109375 C 1134.808594 1567.769531 1135.609375 1560.585938 1137.199219 1553.5625 C 1138.800781 1546.542969 1140.390625 1539.039062 1141.988281 1531.058594 C 1149.011719 1497.542969 1158.269531 1466.898438 1169.761719 1439.128906 C 1181.25 1411.039062 1193.378906 1384.066406 1206.148438 1358.210938 C 1209.019531 1352.144531 1212.691406 1345.28125 1217.160156 1337.621094 C 1221.628906 1329.640625 1226.578125 1322.140625 1232 1315.117188 C 1237.75 1308.097656 1243.808594 1302.191406 1250.199219 1297.402344 C 1256.898438 1292.613281 1263.921875 1290.21875 1271.269531 1290.21875 C 1273.5 1290.21875 1276.210938 1290.539062 1279.410156 1291.179688 C 1282.921875 1291.816406 1286.269531 1293.253906 1289.460938 1295.488281 C 1292.648438 1297.402344 1295.359375 1300.273438 1297.601562 1304.105469 C 1299.828125 1307.617188 1300.949219 1312.40625 1300.949219 1318.46875 C 1300.949219 1333.792969 1294.089844 1353.261719 1280.359375 1376.882812 C 1266.628906 1400.503906 1246.210938 1427.160156 1219.070312 1456.84375 C 1223.859375 1453.652344 1228.96875 1450.78125 1234.390625 1448.226562 C 1240.140625 1445.355469 1246.210938 1443.917969 1252.589844 1443.917969 C 1262.808594 1443.917969 1271.578125 1447.429688 1278.929688 1454.449219 C 1286.589844 1461.472656 1290.410156 1470.570312 1290.410156 1481.742188 C 1290.410156 1483.65625 1290.25 1485.734375 1289.921875 1487.96875 C 1289.589844 1489.882812 1289.109375 1491.636719 1288.480469 1493.234375 C 1283.378906 1507.917969 1275.878906 1518.769531 1265.980469 1525.792969 C 1256.398438 1532.496094 1242.359375 1537.921875 1223.839844 1542.074219 C 1223.839844 1546.542969 1224.480469 1551.488281 1225.761719 1556.914062 C 1227.359375 1562.34375 1229.269531 1567.609375 1231.5 1572.714844 C 1234.058594 1577.503906 1236.929688 1581.652344 1240.121094 1585.164062 C 1243.308594 1588.355469 1246.820312 1589.953125 1250.660156 1589.953125 C 1254.160156 1589.953125 1258 1589.15625 1262.140625 1587.558594 C 1266.609375 1585.644531 1270.128906 1583.570312 1272.679688 1581.335938 C 1280.339844 1575.589844 1286.878906 1569.523438 1292.308594 1563.140625 C 1297.738281 1556.4375 1302.519531 1549.734375 1306.679688 1543.03125 C 1310.820312 1536.007812 1314.820312 1528.984375 1318.640625 1521.960938 C 1322.480469 1514.941406 1326.628906 1508.238281 1331.089844 1501.851562 C 1332.050781 1500.894531 1333.328125 1500.414062 1334.929688 1500.414062 C 1335.570312 1500.414062 1336.199219 1500.574219 1336.839844 1500.894531 C 1337.800781 1500.894531 1338.601562 1500.894531 1339.230469 1500.894531 Z M 1264.078125 1323.257812 C 1257.378906 1337.941406 1250.679688 1352.625 1243.96875 1367.308594 C 1237.589844 1381.992188 1231.199219 1396.675781 1224.820312 1411.359375 L 1214.289062 1434.820312 C 1227.378906 1420.136719 1238.230469 1407.050781 1246.839844 1395.558594 C 1255.460938 1384.066406 1262.171875 1373.851562 1266.960938 1364.914062 C 1272.058594 1355.976562 1275.570312 1348.316406 1277.488281 1341.929688 C 1279.398438 1335.546875 1280.359375 1330.121094 1280.359375 1325.652344 C 1280.359375 1321.820312 1279.878906 1318.628906 1278.929688 1316.074219 C 1277.96875 1313.523438 1276.53125 1312.246094 1274.621094 1312.246094 C 1273.339844 1312.246094 1271.75 1313.042969 1269.828125 1314.640625 C 1268.230469 1316.234375 1266.320312 1319.109375 1264.078125 1323.257812 Z M 1218.121094 1515.738281 C 1223.539062 1515.738281 1228.328125 1514.460938 1232.480469 1511.90625 C 1236.949219 1509.355469 1240.78125 1506.160156 1243.96875 1502.332031 C 1247.160156 1498.183594 1249.558594 1493.714844 1251.160156 1488.925781 C 1252.75 1484.136719 1253.550781 1479.667969 1253.550781 1475.519531 C 1253.550781 1472.007812 1252.109375 1469.613281 1249.238281 1468.335938 C 1246.371094 1467.058594 1243.820312 1466.421875 1241.578125 1466.421875 C 1237.429688 1466.421875 1232.960938 1467.699219 1228.171875 1470.25 C 1223.699219 1472.804688 1219.230469 1476.15625 1214.769531 1480.308594 C 1210.621094 1484.457031 1206.628906 1489.085938 1202.800781 1494.191406 C 1199.289062 1499.300781 1196.410156 1504.40625 1194.179688 1509.515625 C 1197.691406 1510.789062 1201.519531 1512.066406 1205.671875 1513.34375 C 1209.820312 1514.621094 1213.171875 1515.417969 1215.730469 1515.738281 Z M 1218.121094 1515.738281 "/>
<path fill-rule="nonzero" fill="rgb(47.068787%, 26.660156%, 12.939453%)" fill-opacity="1" d="M 1345.640625 1592.347656 C 1350.109375 1592.347656 1354.410156 1590.75 1358.558594 1587.558594 C 1363.03125 1584.367188 1367.179688 1580.375 1371.011719 1575.589844 C 1375.160156 1570.800781 1378.988281 1565.691406 1382.5 1560.265625 C 1386.019531 1554.839844 1389.371094 1549.894531 1392.558594 1545.421875 C 1394.789062 1542.550781 1397.351562 1538.878906 1400.21875 1534.410156 C 1403.410156 1529.625 1406.441406 1525.15625 1409.320312 1521.003906 C 1412.511719 1516.535156 1415.539062 1512.707031 1418.410156 1509.511719 C 1421.609375 1506.320312 1424.160156 1504.726562 1426.070312 1504.726562 C 1427.988281 1504.726562 1429.75 1505.363281 1431.339844 1506.640625 C 1432.941406 1507.597656 1433.738281 1509.035156 1433.738281 1510.949219 C 1433.738281 1511.90625 1433.421875 1513.34375 1432.78125 1515.257812 C 1432.140625 1517.175781 1431.339844 1518.609375 1430.378906 1519.566406 C 1425.910156 1527.546875 1420.328125 1537.125 1413.628906 1548.296875 C 1407.238281 1559.148438 1400.21875 1569.683594 1392.558594 1579.898438 C 1384.898438 1589.792969 1376.761719 1598.25 1368.140625 1605.273438 C 1359.839844 1612.296875 1351.539062 1615.808594 1343.238281 1615.808594 C 1338.769531 1615.808594 1334.308594 1614.691406 1329.839844 1612.457031 C 1325.679688 1609.902344 1321.859375 1606.710938 1318.339844 1602.878906 C 1314.828125 1599.050781 1312.121094 1594.742188 1310.199219 1589.953125 C 1307.96875 1585.164062 1306.851562 1580.375 1306.851562 1575.589844 C 1306.851562 1566.648438 1307.808594 1557.394531 1309.730469 1547.816406 C 1311.640625 1537.921875 1314.359375 1528.347656 1317.871094 1519.089844 C 1321.058594 1509.511719 1325.050781 1500.414062 1329.839844 1491.796875 C 1334.628906 1482.859375 1339.730469 1474.71875 1345.160156 1467.378906 C 1348.988281 1462.269531 1353.460938 1458.121094 1358.570312 1454.929688 C 1363.671875 1451.417969 1369.421875 1449.660156 1375.800781 1449.660156 C 1379.628906 1449.660156 1382.820312 1450.621094 1385.378906 1452.535156 C 1387.929688 1454.132812 1389.210938 1456.683594 1389.210938 1460.195312 C 1389.210938 1463.707031 1387.929688 1467.695312 1385.378906 1472.164062 C 1383.140625 1476.316406 1381.230469 1479.988281 1379.628906 1483.179688 C 1372.289062 1496.585938 1365.75 1510.3125 1360 1524.355469 C 1354.570312 1538.082031 1350.109375 1552.445312 1346.589844 1567.449219 C 1345.960938 1570 1345.160156 1572.714844 1344.199219 1575.589844 C 1343.558594 1578.140625 1343.238281 1580.695312 1343.238281 1583.25 C 1343.238281 1586.441406 1344.039062 1589.472656 1345.640625 1592.347656 Z M 1416.019531 1413.753906 C 1416.019531 1414.390625 1416.019531 1415.027344 1416.019531 1415.667969 C 1416.351562 1416.304688 1416.519531 1416.945312 1416.519531 1417.582031 C 1416.519531 1423.964844 1413.960938 1429.234375 1408.859375 1433.382812 C 1404.070312 1437.53125 1398.480469 1439.609375 1392.101562 1439.609375 C 1385.390625 1439.609375 1379.488281 1437.691406 1374.378906 1433.863281 C 1369.589844 1429.710938 1367.199219 1425.082031 1367.199219 1419.976562 C 1367.199219 1413.910156 1369.75 1409.125 1374.859375 1405.613281 C 1379.96875 1401.78125 1385.230469 1399.867188 1390.660156 1399.867188 C 1396.089844 1399.867188 1400.71875 1401.304688 1404.550781 1404.175781 C 1408.691406 1407.046875 1412.53125 1410.242188 1416.039062 1413.75 Z M 1416.019531 1413.753906 "/>
<path fill-rule="nonzero" fill="rgb(47.068787%, 26.660156%, 12.939453%)" fill-opacity="1" d="M 1534.210938 1441.042969 C 1535.808594 1440.726562 1537.089844 1440.566406 1538.039062 1440.566406 C 1539.320312 1440.25 1540.601562 1440.089844 1541.878906 1440.089844 C 1549.210938 1440.089844 1555.121094 1442.804688 1559.589844 1448.230469 C 1564.378906 1453.335938 1566.769531 1460.519531 1566.769531 1469.777344 C 1566.769531 1476.160156 1565.820312 1481.90625 1563.898438 1487.011719 C 1563.898438 1492.441406 1561.820312 1499.460938 1557.679688 1508.082031 C 1553.839844 1516.378906 1549.378906 1525.15625 1544.269531 1534.414062 C 1539.480469 1543.351562 1535.011719 1552.128906 1530.859375 1560.75 C 1527.03125 1569.046875 1525.121094 1575.910156 1525.121094 1581.335938 C 1525.121094 1587.082031 1527.828125 1590.433594 1533.261719 1591.394531 C 1541.558594 1585.648438 1548.738281 1579.742188 1554.808594 1573.675781 C 1560.871094 1567.292969 1566.289062 1560.910156 1571.078125 1554.523438 C 1575.871094 1547.820312 1580.179688 1541.277344 1584.011719 1534.894531 C 1588.160156 1528.191406 1592.46875 1521.964844 1596.941406 1516.21875 C 1600.128906 1512.070312 1603 1507.761719 1605.558594 1503.292969 C 1608.109375 1498.824219 1612.101562 1494.515625 1617.53125 1490.363281 C 1618.171875 1492.597656 1618.640625 1494.515625 1618.960938 1496.109375 C 1619.601562 1497.386719 1619.921875 1498.503906 1619.921875 1499.460938 C 1619.921875 1502.015625 1619.441406 1504.730469 1618.480469 1507.601562 C 1617.53125 1510.476562 1616.410156 1513.027344 1615.140625 1515.261719 C 1609.710938 1524.839844 1603.320312 1535.851562 1595.980469 1548.300781 C 1588.960938 1560.429688 1581.300781 1571.921875 1573 1582.773438 C 1565.019531 1593.628906 1556.558594 1602.882812 1547.628906 1610.546875 C 1539.011719 1617.886719 1530.710938 1621.558594 1522.730469 1621.558594 C 1514.429688 1621.558594 1506.769531 1618.046875 1499.738281 1611.023438 C 1492.71875 1604 1489.210938 1594.585938 1489.210938 1582.773438 C 1490.171875 1562.664062 1494.800781 1543.671875 1503.089844 1525.796875 C 1511.710938 1507.601562 1521.128906 1489.246094 1531.339844 1470.734375 C 1529.75 1468.820312 1527.988281 1467.859375 1526.078125 1467.859375 C 1525.441406 1467.859375 1524.800781 1468.019531 1524.160156 1468.339844 C 1523.519531 1468.65625 1522.890625 1468.976562 1522.25 1469.296875 C 1503.421875 1486.214844 1487.621094 1505.207031 1474.851562 1526.273438 C 1462.078125 1547.023438 1453.460938 1569.207031 1448.988281 1592.828125 C 1448.039062 1598.253906 1446.761719 1603.363281 1445.160156 1608.148438 C 1443.570312 1612.9375 1440.53125 1615.332031 1436.070312 1615.332031 C 1433.511719 1615.332031 1430.800781 1614.695312 1427.929688 1613.417969 C 1425.371094 1612.140625 1422.980469 1610.542969 1420.738281 1608.628906 C 1418.191406 1606.714844 1415.949219 1604.796875 1414.039062 1602.882812 C 1412.128906 1600.648438 1411.011719 1598.734375 1410.691406 1597.136719 C 1406.539062 1593.945312 1404.460938 1587.402344 1404.460938 1577.507812 C 1404.460938 1566.335938 1405.898438 1555.480469 1408.769531 1544.949219 C 1411.328125 1534.09375 1414.199219 1523.5625 1417.390625 1513.347656 C 1420.578125 1503.132812 1423.621094 1493.078125 1426.488281 1483.183594 C 1429.359375 1472.96875 1430.960938 1463.070312 1431.28125 1453.496094 C 1431.609375 1445.835938 1435.121094 1439.609375 1441.808594 1434.824219 C 1448.511719 1429.714844 1456.96875 1427.160156 1467.191406 1427.160156 C 1471.660156 1427.160156 1475.328125 1428.4375 1478.199219 1430.992188 C 1481.070312 1433.226562 1482.511719 1436.097656 1482.511719 1439.609375 C 1482.511719 1443.441406 1481.390625 1449.027344 1479.160156 1456.367188 C 1477.238281 1463.390625 1474.851562 1470.734375 1471.980469 1478.394531 C 1469.109375 1486.054688 1466.070312 1493.394531 1462.878906 1500.417969 C 1459.691406 1507.441406 1456.980469 1512.546875 1454.738281 1515.742188 L 1456.648438 1517.175781 C 1456.648438 1517.496094 1456.328125 1517.972656 1455.691406 1518.613281 C 1455.691406 1518.296875 1455.53125 1518.773438 1455.191406 1520.050781 C 1454.871094 1521.007812 1454.550781 1522.285156 1454.238281 1523.878906 C 1453.910156 1525.15625 1453.429688 1526.433594 1452.800781 1527.710938 C 1452.46875 1528.988281 1452.308594 1529.785156 1452.308594 1530.105469 C 1458.050781 1522.445312 1463.640625 1513.984375 1469.058594 1504.726562 C 1474.488281 1495.152344 1480.230469 1486.214844 1486.300781 1477.914062 C 1492.359375 1469.296875 1499.230469 1461.636719 1506.890625 1454.933594 C 1514.550781 1448.230469 1523.640625 1443.601562 1534.179688 1441.046875 Z M 1534.210938 1441.042969 "/>
<path fill-rule="nonzero" fill="rgb(47.068787%, 26.660156%, 12.939453%)" fill-opacity="1" d="M 1645.089844 1645.496094 C 1646.691406 1643.578125 1648.289062 1640.707031 1649.878906 1636.875 C 1651.789062 1633.363281 1653.550781 1629.375 1655.140625 1624.90625 C 1657.058594 1620.757812 1658.820312 1616.605469 1660.410156 1612.457031 C 1662.011719 1608.308594 1663.609375 1604.796875 1665.199219 1601.921875 C 1656.898438 1605.117188 1650.519531 1607.351562 1646.050781 1608.625 C 1641.578125 1609.582031 1637.269531 1610.0625 1633.121094 1610.0625 C 1621.941406 1610.0625 1612.210938 1605.433594 1603.910156 1596.175781 C 1595.609375 1586.601562 1591.460938 1573.832031 1591.460938 1557.871094 C 1591.460938 1544.148438 1593.859375 1530.101562 1598.640625 1515.738281 C 1603.109375 1501.375 1609.5 1488.285156 1617.800781 1476.476562 C 1626.410156 1464.664062 1636.789062 1455.089844 1648.921875 1447.746094 C 1661.371094 1440.085938 1675.25 1436.257812 1690.570312 1436.257812 C 1696 1436.257812 1701.269531 1437.054688 1706.378906 1438.648438 C 1711.800781 1440.246094 1717.230469 1442.960938 1722.660156 1446.789062 L 1728.398438 1450.140625 C 1729.039062 1450.140625 1730 1450.300781 1731.269531 1450.617188 C 1732.230469 1449.660156 1733.511719 1448.382812 1735.109375 1446.789062 C 1736.699219 1444.875 1738.460938 1442.957031 1740.371094 1441.042969 C 1742.609375 1439.128906 1744.839844 1437.53125 1747.070312 1436.253906 C 1749.628906 1434.976562 1752.019531 1434.339844 1754.261719 1434.339844 C 1757.449219 1434.339844 1760 1435.296875 1761.921875 1437.210938 C 1764.148438 1439.128906 1765.269531 1441.839844 1765.269531 1445.351562 C 1765.269531 1447.90625 1764.949219 1450.460938 1764.308594 1453.011719 C 1763.980469 1455.25 1763.5 1457.484375 1762.871094 1459.714844 C 1756.808594 1477.273438 1750.738281 1494.988281 1744.679688 1512.863281 C 1738.929688 1530.738281 1732.871094 1548.457031 1726.480469 1566.011719 C 1720.101562 1583.25 1713.238281 1600.007812 1705.890625 1616.285156 C 1698.871094 1632.566406 1691.050781 1648.046875 1682.429688 1662.730469 C 1690.730469 1668.15625 1699.671875 1672.785156 1709.25 1676.617188 C 1718.820312 1680.445312 1727.921875 1682.363281 1736.539062 1682.363281 C 1741.96875 1682.363281 1746.75 1681.402344 1750.898438 1679.488281 C 1755.050781 1677.894531 1759.039062 1675.660156 1762.871094 1672.785156 C 1766.699219 1670.230469 1770.539062 1667.359375 1774.359375 1664.167969 C 1778.519531 1660.976562 1782.980469 1658.101562 1787.769531 1655.546875 C 1788.730469 1654.910156 1789.839844 1654.589844 1791.121094 1654.589844 C 1792.390625 1654.589844 1793.828125 1654.589844 1795.429688 1654.589844 C 1803.410156 1654.589844 1807.398438 1657.464844 1807.398438 1663.210938 C 1807.398438 1667.359375 1805.011719 1671.507812 1800.21875 1675.65625 C 1795.429688 1679.808594 1789.359375 1683.480469 1782.019531 1686.671875 C 1775 1689.863281 1767.5 1692.417969 1759.519531 1694.332031 C 1751.539062 1696.246094 1744.199219 1697.203125 1737.488281 1697.203125 C 1725.679688 1697.203125 1714.511719 1695.449219 1703.980469 1691.9375 C 1693.761719 1688.746094 1682.109375 1685.234375 1669.019531 1681.402344 C 1661.359375 1689.703125 1653.378906 1697.523438 1645.089844 1704.867188 C 1636.789062 1712.527344 1628.171875 1719.230469 1619.230469 1724.976562 C 1610.289062 1730.722656 1601.039062 1735.191406 1591.460938 1738.382812 C 1581.558594 1741.894531 1571.191406 1743.648438 1560.339844 1743.648438 C 1551.078125 1743.648438 1542.941406 1742.050781 1535.921875 1738.859375 C 1528.570312 1735.988281 1522.351562 1731.996094 1517.238281 1726.890625 C 1512.140625 1721.78125 1508.308594 1715.878906 1505.75 1709.175781 C 1502.878906 1702.789062 1501.441406 1696.085938 1501.441406 1689.066406 C 1501.769531 1682.679688 1503.53125 1676.136719 1506.710938 1669.433594 C 1509.578125 1662.730469 1513.730469 1656.503906 1519.160156 1650.761719 C 1524.589844 1645.332031 1530.96875 1640.863281 1538.308594 1637.351562 C 1545.648438 1633.84375 1553.628906 1632.085938 1562.25 1632.085938 C 1575.980469 1632.085938 1589.699219 1633.363281 1603.429688 1635.917969 C 1616.839844 1638.789062 1630.71875 1641.980469 1645.089844 1645.492188 Z M 1719.789062 1465.941406 C 1713.398438 1462.75 1707.660156 1461.152344 1702.550781 1461.152344 C 1696.808594 1461.152344 1690.421875 1463.707031 1683.398438 1468.816406 C 1676.378906 1473.601562 1670.789062 1478.230469 1666.640625 1482.699219 C 1655.789062 1494.511719 1647.480469 1507.917969 1641.738281 1522.921875 C 1636.308594 1537.601562 1631.679688 1552.765625 1627.859375 1568.40625 C 1627.210938 1570.960938 1626.890625 1572.875 1626.890625 1574.152344 C 1626.890625 1582.132812 1629.929688 1586.121094 1635.988281 1586.121094 C 1636.949219 1586.121094 1638.390625 1585.804688 1640.300781 1585.164062 C 1652.429688 1580.695312 1662.648438 1575.269531 1670.941406 1568.886719 C 1679.570312 1562.183594 1686.429688 1553.085938 1691.539062 1541.59375 C 1696.960938 1529.464844 1702.390625 1517.015625 1707.808594 1504.246094 C 1713.238281 1491.160156 1717.230469 1478.390625 1719.789062 1465.941406 Z M 1624.980469 1668.957031 C 1616.039062 1665.765625 1606.789062 1663.050781 1597.210938 1660.816406 C 1587.320312 1658.582031 1577.738281 1657.464844 1568.480469 1657.464844 C 1562.738281 1657.464844 1556.828125 1658.101562 1550.769531 1659.378906 C 1544.699219 1660.65625 1539.28125 1662.570312 1534.488281 1665.125 C 1529.378906 1667.679688 1525.230469 1670.871094 1522.039062 1674.703125 C 1518.53125 1678.851562 1516.769531 1683.640625 1516.769531 1689.066406 C 1516.769531 1692.894531 1517.730469 1696.566406 1519.640625 1700.078125 C 1521.558594 1703.589844 1523.949219 1706.621094 1526.828125 1709.175781 C 1529.699219 1712.046875 1533.050781 1714.28125 1536.878906 1715.878906 C 1540.390625 1717.476562 1543.910156 1718.273438 1547.410156 1718.273438 C 1555.078125 1718.273438 1562.578125 1716.996094 1569.921875 1714.441406 C 1577.261719 1711.890625 1584.289062 1708.539062 1590.988281 1704.386719 C 1597.691406 1700.558594 1603.910156 1695.929688 1609.660156 1690.503906 C 1615.410156 1685.074219 1620.359375 1679.488281 1624.5 1673.742188 C 1624.839844 1673.425781 1625 1672.945312 1625 1672.308594 L 1625 1670.394531 Z M 1624.980469 1668.957031 "/>
<path fill-rule="nonzero" fill="rgb(100%, 100%, 100%)" fill-opacity="1" d="M 902.480469 1665.074219 L 907.960938 1711.199219 C 910.289062 1710.949219 912.617188 1710.699219 914.945312 1710.492188 L 909.488281 1664.347656 C 907.152344 1664.597656 904.816406 1664.84375 902.480469 1665.078125 Z M 851.054688 1673.484375 C 846.691406 1674.082031 843.253906 1675.71875 840.789062 1678.375 C 838.34375 1681.027344 837.347656 1684.109375 837.777344 1687.628906 C 838.277344 1691.644531 840.558594 1694.65625 844.648438 1696.636719 C 846.792969 1697.664062 849.609375 1698.460938 853.09375 1699.0625 C 856.578125 1699.664062 859.007812 1700.414062 860.410156 1701.277344 C 861.832031 1702.144531 862.648438 1703.515625 862.882812 1705.433594 C 863.082031 1707.195312 862.632812 1708.71875 861.484375 1709.972656 C 860.351562 1711.203125 858.542969 1711.984375 856.035156 1712.328125 C 853.121094 1712.726562 850.808594 1712.359375 849.082031 1711.214844 C 847.351562 1710.070312 846.34375 1708.246094 846.039062 1705.769531 L 838.816406 1706.757812 C 839.113281 1709.496094 840.121094 1711.8125 841.769531 1713.683594 C 843.421875 1715.546875 845.59375 1716.882812 848.253906 1717.71875 C 850.925781 1718.535156 853.761719 1718.742188 856.765625 1718.328125 C 861.3125 1717.707031 864.785156 1716.136719 867.171875 1713.636719 C 869.570312 1711.113281 870.539062 1708.035156 870.097656 1704.394531 C 869.847656 1702.15625 869.128906 1700.277344 868.019531 1698.742188 C 866.914062 1697.1875 865.300781 1695.902344 863.183594 1694.886719 C 861.066406 1693.859375 858.3125 1693.0625 854.953125 1692.507812 C 851.589844 1691.925781 849.152344 1691.203125 847.617188 1690.339844 C 846.070312 1689.453125 845.203125 1688.210938 845.007812 1686.613281 C 844.808594 1684.710938 845.203125 1683.136719 846.398438 1681.90625 C 847.585938 1680.664062 849.359375 1679.890625 851.726562 1679.5625 C 854.261719 1679.214844 856.289062 1679.589844 857.792969 1680.703125 C 859.324219 1681.796875 860.214844 1683.484375 860.488281 1685.761719 L 867.695312 1684.777344 C 867.347656 1682.257812 866.46875 1680.046875 864.921875 1678.167969 C 863.378906 1676.261719 861.386719 1674.910156 858.984375 1674.101562 C 856.578125 1673.289062 853.945312 1673.082031 851.046875 1673.480469 L 851.050781 1673.480469 Z M 546.097656 1715.835938 C 552.015625 1724.371094 557.933594 1732.910156 563.84375 1741.449219 L 566.027344 1757.492188 L 573.269531 1756.503906 L 571.089844 1740.460938 C 574.488281 1730.648438 577.890625 1720.835938 581.300781 1711.019531 L 573.300781 1712.113281 C 571.039062 1719.429688 568.785156 1726.75 566.527344 1734.066406 C 562.402344 1727.621094 558.273438 1721.175781 554.144531 1714.734375 Z M 1252.398438 1646.773438 L 1251.878906 1690.667969 C 1254.28125 1690.710938 1256.671875 1690.769531 1259.070312 1690.816406 L 1259.421875 1671.3125 C 1265.679688 1671.460938 1271.941406 1671.660156 1278.191406 1671.863281 L 1277.601562 1691.351562 C 1279.988281 1691.449219 1282.378906 1691.550781 1284.761719 1691.597656 L 1286.308594 1647.777344 C 1283.839844 1647.679688 1281.378906 1647.578125 1278.910156 1647.480469 L 1278.359375 1665.730469 C 1272.070312 1665.484375 1265.789062 1665.335938 1259.511719 1665.175781 L 1259.808594 1646.90625 C 1257.339844 1646.855469 1254.859375 1646.804688 1252.390625 1646.757812 Z M 628.167969 1715.394531 C 625.347656 1715.792969 622.957031 1716.820312 620.964844 1718.496094 C 618.972656 1720.152344 617.535156 1722.324219 616.675781 1725.042969 C 615.816406 1727.742188 615.59375 1730.683594 616.019531 1733.855469 L 616.066406 1734.203125 C 616.742188 1739.273438 618.574219 1743.175781 621.585938 1745.871094 C 624.617188 1748.546875 628.316406 1749.589844 632.675781 1748.992188 C 635.527344 1748.597656 637.949219 1747.558594 639.933594 1745.886719 C 641.941406 1744.210938 643.351562 1742.046875 644.183594 1739.371094 C 645.027344 1736.691406 645.25 1733.753906 644.839844 1730.558594 L 644.640625 1728.835938 C 643.804688 1724.214844 641.910156 1720.683594 638.929688 1718.226562 C 635.960938 1715.765625 632.382812 1714.820312 628.210938 1715.394531 C 628.210938 1715.390625 628.210938 1715.390625 628.210938 1715.390625 Z M 755.625 1697.953125 C 752.652344 1698.351562 750.5 1700.09375 749.175781 1703.136719 C 748.929688 1701.9375 748.777344 1700.726562 748.535156 1699.523438 L 741.910156 1700.429688 L 746.035156 1732.859375 L 752.964844 1731.910156 L 750.15625 1709.730469 C 750.9375 1707.019531 752.929688 1705.457031 756.113281 1705.023438 C 757.074219 1704.875 758.019531 1704.824219 758.953125 1704.875 L 758.089844 1698.046875 C 757.410156 1697.847656 756.570312 1697.847656 755.578125 1697.949219 C 755.59375 1697.945312 755.605469 1697.945312 755.617188 1697.941406 Z M 962.46875 1672.226562 C 959.613281 1672.527344 957.183594 1673.457031 955.144531 1675.054688 C 953.109375 1676.636719 951.617188 1678.757812 950.695312 1681.445312 C 949.773438 1684.113281 949.496094 1687.046875 949.847656 1690.238281 L 949.886719 1690.585938 C 950.464844 1695.683594 952.257812 1699.65625 955.222656 1702.472656 C 958.210938 1705.265625 961.902344 1706.453125 966.285156 1706.035156 C 969.160156 1705.785156 971.609375 1704.8125 973.640625 1703.222656 C 975.6875 1701.625 977.152344 1699.519531 978.050781 1696.875 C 978.96875 1694.230469 979.253906 1691.296875 978.90625 1688.078125 L 978.707031 1686.34375 C 977.976562 1681.683594 976.175781 1678.066406 973.230469 1675.484375 C 970.300781 1672.898438 966.710938 1671.8125 962.492188 1672.21875 C 962.480469 1672.21875 962.464844 1672.21875 962.453125 1672.21875 Z M 1025.140625 1666.515625 C 1021.359375 1666.816406 1018.449219 1668.628906 1016.460938 1671.867188 C 1014.480469 1675.082031 1013.738281 1679.226562 1014.25 1684.300781 C 1014.789062 1689.675781 1016.359375 1693.773438 1018.96875 1696.617188 C 1021.589844 1699.457031 1024.730469 1700.730469 1028.359375 1700.429688 C 1031.710938 1700.128906 1034.28125 1698.738281 1036.070312 1696.214844 L 1036.269531 1698.425781 C 1036.511719 1700.984375 1036.019531 1702.957031 1034.800781 1704.375 C 1033.589844 1705.816406 1031.839844 1706.636719 1029.519531 1706.832031 C 1026.378906 1707.082031 1023.621094 1705.972656 1021.210938 1703.476562 C 1020.25 1705.046875 1019.300781 1706.617188 1018.351562 1708.1875 C 1019.628906 1709.703125 1021.398438 1710.84375 1023.660156 1711.648438 C 1025.941406 1712.46875 1028.210938 1712.796875 1030.488281 1712.609375 C 1034.78125 1712.257812 1038.070312 1710.734375 1040.359375 1708.050781 C 1042.671875 1705.367188 1043.628906 1701.863281 1043.230469 1697.574219 L 1040.308594 1665.871094 C 1038.191406 1666.019531 1036.070312 1666.21875 1033.949219 1666.382812 L 1033.929688 1669.714844 C 1031.640625 1667.285156 1028.699219 1666.207031 1025.128906 1666.511719 C 1025.128906 1666.511719 1025.121094 1666.511719 1025.109375 1666.511719 Z M 1090.988281 1661.628906 C 1088.570312 1661.78125 1086.410156 1662.371094 1084.488281 1663.390625 C 1082.609375 1664.402344 1081.148438 1665.746094 1080.128906 1667.390625 C 1079.109375 1669.019531 1078.671875 1670.714844 1078.808594 1672.511719 C 1081.148438 1672.363281 1083.5 1672.214844 1085.839844 1672.066406 C 1085.75 1670.773438 1086.238281 1669.691406 1087.148438 1668.796875 C 1088.121094 1667.878906 1089.378906 1667.382812 1090.988281 1667.28125 C 1092.851562 1667.179688 1094.269531 1667.578125 1095.269531 1668.542969 C 1096.25 1669.492188 1096.789062 1670.816406 1096.910156 1672.511719 L 1097.058594 1674.679688 C 1095.628906 1674.78125 1094.179688 1674.878906 1092.75 1674.929688 C 1088.140625 1675.226562 1084.660156 1676.394531 1082.320312 1678.433594 C 1080 1680.449219 1078.988281 1683.203125 1079.269531 1686.691406 C 1079.460938 1689.453125 1080.671875 1691.707031 1082.789062 1693.449219 C 1084.898438 1695.1875 1087.511719 1695.957031 1090.628906 1695.753906 C 1093.839844 1695.554688 1096.460938 1694.144531 1098.511719 1691.570312 C 1098.859375 1692.972656 1099.191406 1693.964844 1099.539062 1694.570312 C 1101.921875 1694.421875 1104.289062 1694.273438 1106.671875 1694.125 L 1106.628906 1693.621094 C 1105.71875 1691.914062 1105.171875 1689.582031 1104.960938 1686.636719 L 1103.941406 1671.878906 C 1103.589844 1668.398438 1102.308594 1665.757812 1099.980469 1663.972656 C 1097.660156 1662.171875 1094.660156 1661.375 1090.980469 1661.609375 Z M 1157.511719 1658.332031 C 1153.730469 1658.480469 1150.730469 1660.039062 1148.539062 1663.058594 C 1148.390625 1661.792969 1148.300781 1660.539062 1148.101562 1659.273438 C 1145.878906 1659.375 1143.660156 1659.472656 1141.441406 1659.523438 L 1143.148438 1692.253906 C 1145.480469 1692.152344 1147.808594 1692.054688 1150.128906 1691.953125 L 1148.988281 1668.667969 C 1150.25 1665.933594 1152.308594 1664.5 1155.160156 1664.398438 C 1157.121094 1664.347656 1158.539062 1664.792969 1159.441406 1665.773438 C 1160.359375 1666.734375 1160.851562 1668.253906 1160.941406 1670.332031 L 1161.839844 1691.519531 C 1164.160156 1691.417969 1166.46875 1691.371094 1168.789062 1691.269531 L 1167.941406 1669.65625 C 1167.5 1661.863281 1164.058594 1658.050781 1157.480469 1658.28125 C 1157.480469 1658.28125 1157.46875 1658.28125 1157.46875 1658.28125 Z M 1337.878906 1661.589844 C 1335.191406 1661.390625 1332.691406 1661.890625 1330.410156 1663.152344 C 1328.121094 1664.410156 1326.300781 1666.292969 1324.910156 1668.769531 C 1323.558594 1671.230469 1322.761719 1674.0625 1322.550781 1677.304688 L 1322.5 1678.207031 C 1322.199219 1683.050781 1323.308594 1687.046875 1325.820312 1690.160156 C 1328.328125 1693.253906 1331.78125 1694.96875 1336.109375 1695.324219 C 1338.640625 1695.523438 1340.980469 1695.175781 1343.089844 1694.292969 C 1345.230469 1693.390625 1347.011719 1692.042969 1348.398438 1690.214844 C 1347.269531 1688.847656 1346.140625 1687.488281 1344.988281 1686.125 C 1342.769531 1688.648438 1340.101562 1689.792969 1336.941406 1689.539062 C 1334.691406 1689.339844 1332.878906 1688.429688 1331.5 1686.757812 C 1330.128906 1685.082031 1329.429688 1682.898438 1329.421875 1680.203125 C 1336.148438 1680.707031 1342.878906 1681.261719 1349.609375 1681.875 L 1349.859375 1678.925781 C 1350.308594 1673.765625 1349.511719 1669.683594 1347.421875 1666.660156 C 1345.339844 1663.636719 1342.160156 1661.9375 1337.878906 1661.59375 Z M 1401.519531 1668.417969 C 1398.511719 1668.019531 1395.980469 1669.109375 1393.941406 1671.695312 C 1394.039062 1670.480469 1394.140625 1669.265625 1394.238281 1668.046875 C 1392 1667.75 1389.761719 1667.480469 1387.53125 1667.203125 L 1383.628906 1699.53125 C 1385.898438 1699.832031 1388.171875 1700.097656 1390.441406 1700.398438 L 1393.25 1678.300781 C 1394.691406 1675.894531 1397 1674.914062 1400.191406 1675.34375 C 1401.160156 1675.492188 1402.121094 1675.691406 1403.019531 1675.972656 L 1403.941406 1669.175781 C 1403.308594 1668.828125 1402.519531 1668.546875 1401.519531 1668.417969 C 1401.519531 1668.417969 1401.53125 1668.417969 1401.539062 1668.417969 Z M 1451.460938 1676.371094 C 1448.789062 1675.871094 1446.238281 1676.121094 1443.820312 1677.164062 C 1441.410156 1678.1875 1439.378906 1679.878906 1437.75 1682.210938 C 1436.128906 1684.527344 1435.058594 1687.269531 1434.5 1690.480469 L 1434.359375 1691.371094 C 1433.539062 1696.167969 1434.25 1700.261719 1436.410156 1703.617188 C 1438.589844 1706.964844 1441.789062 1709.019531 1446.070312 1709.820312 C 1448.570312 1710.269531 1450.941406 1710.171875 1453.140625 1709.523438 C 1455.371094 1708.847656 1457.289062 1707.695312 1458.878906 1706.019531 C 1457.890625 1704.539062 1456.910156 1703.058594 1455.921875 1701.578125 C 1453.441406 1703.863281 1450.648438 1704.722656 1447.539062 1704.136719 C 1445.320312 1703.738281 1443.621094 1702.609375 1442.421875 1700.796875 C 1441.230469 1698.988281 1440.769531 1696.742188 1441.039062 1694.050781 C 1447.691406 1695.238281 1454.339844 1696.488281 1460.988281 1697.816406 L 1461.570312 1694.894531 C 1462.589844 1689.792969 1462.230469 1685.636719 1460.460938 1682.398438 C 1458.71875 1679.167969 1455.699219 1677.136719 1451.460938 1676.355469 Z M 678.816406 1709.066406 L 681.554688 1730.078125 C 682.054688 1733.96875 683.304688 1736.828125 685.285156 1738.648438 C 687.285156 1740.46875 689.960938 1741.160156 693.308594 1740.699219 C 697.058594 1740.1875 699.769531 1738.53125 701.480469 1735.734375 C 701.628906 1736.78125 701.878906 1737.824219 702.066406 1738.875 L 708.609375 1737.980469 L 704.425781 1705.558594 L 697.464844 1706.511719 L 700.480469 1729.792969 C 699.632812 1732.492188 697.523438 1734.070312 694.160156 1734.53125 C 690.910156 1734.976562 689.015625 1733.148438 688.476562 1729.035156 L 685.757812 1708.117188 C 683.453125 1708.417969 681.136719 1708.75 678.824219 1709.066406 Z M 628.945312 1721.222656 C 631.246094 1720.925781 633.207031 1721.621094 634.796875 1723.355469 C 636.402344 1725.085938 637.421875 1727.59375 637.859375 1730.867188 C 638.355469 1734.5625 638.007812 1737.46875 636.992188 1739.566406 C 635.957031 1741.65625 634.269531 1742.871094 631.925781 1743.1875 C 629.585938 1743.488281 627.625 1742.792969 626.0625 1741.105469 C 624.5 1739.390625 623.5 1736.871094 623.058594 1733.539062 C 622.5625 1729.785156 622.8125 1726.875 623.9375 1724.816406 C 625.015625 1722.738281 626.675781 1721.535156 628.941406 1721.222656 Z M 963.121094 1678.09375 C 965.445312 1677.84375 967.410156 1678.65625 968.964844 1680.460938 C 970.546875 1682.257812 971.511719 1684.808594 971.875 1688.105469 C 972.320312 1691.820312 971.910156 1694.71875 970.808594 1696.777344 C 969.71875 1698.828125 968.007812 1699.972656 965.648438 1700.199219 C 963.296875 1700.449219 961.332031 1699.644531 959.800781 1697.882812 C 958.257812 1696.105469 957.292969 1693.550781 956.917969 1690.195312 C 956.46875 1686.417969 956.816406 1683.523438 957.960938 1681.5 C 959.09375 1679.464844 960.804688 1678.320312 963.097656 1678.097656 C 963.105469 1678.097656 963.113281 1678.097656 963.121094 1678.09375 Z M 1337.410156 1667.429688 C 1339.351562 1667.578125 1340.820312 1668.34375 1341.808594 1669.695312 C 1342.820312 1671.027344 1343.289062 1672.9375 1343.238281 1675.386719 L 1343.191406 1675.925781 C 1338.761719 1675.53125 1334.328125 1675.191406 1329.890625 1674.859375 C 1330.398438 1672.378906 1331.289062 1670.476562 1332.570312 1669.164062 C 1333.859375 1667.855469 1335.480469 1667.269531 1337.410156 1667.429688 Z M 1450.378906 1682.144531 C 1452.308594 1682.492188 1453.679688 1683.40625 1454.539062 1684.855469 C 1455.398438 1686.292969 1455.671875 1688.242188 1455.351562 1690.679688 L 1455.25 1691.21875 C 1450.871094 1690.378906 1446.480469 1689.566406 1442.089844 1688.789062 C 1442.828125 1686.367188 1443.941406 1684.558594 1445.351562 1683.378906 C 1446.78125 1682.207031 1448.460938 1681.789062 1450.371094 1682.144531 C 1450.371094 1682.140625 1450.371094 1682.140625 1450.371094 1682.140625 Z M 1027.53125 1672.367188 C 1030.359375 1672.117188 1032.570312 1673.222656 1034.128906 1675.585938 L 1035.488281 1689.972656 C 1034.378906 1692.621094 1032.390625 1694.042969 1029.570312 1694.277344 C 1027.300781 1694.472656 1025.429688 1693.679688 1023.960938 1691.914062 C 1022.511719 1690.128906 1021.621094 1687.601562 1021.289062 1684.316406 C 1020.941406 1680.589844 1021.320312 1677.722656 1022.371094 1675.703125 C 1023.46875 1673.679688 1025.199219 1672.554688 1027.519531 1672.363281 Z M 1093.628906 1679.523438 C 1094.878906 1679.425781 1096.140625 1679.375 1097.410156 1679.277344 L 1097.859375 1685.449219 C 1097.308594 1686.675781 1096.46875 1687.675781 1095.300781 1688.460938 C 1094.140625 1689.242188 1092.878906 1689.667969 1091.5 1689.753906 C 1090 1689.851562 1088.789062 1689.503906 1087.820312 1688.746094 C 1086.878906 1687.953125 1086.328125 1686.859375 1086.230469 1685.449219 C 1086.070312 1683.714844 1086.671875 1682.324219 1087.898438 1681.289062 C 1089.140625 1680.253906 1091.050781 1679.675781 1093.640625 1679.511719 Z M 1093.628906 1679.523438 "/>
</svg>
